<svg xmlns="http://www.w3.org/2000/svg" viewBox="0 0 64 64" role="img" aria-label="Feelings wheel">
  <g transform="translate(32 32)">
    <circle r="30" fill="#2E3440" />
    <g>
      <path d="M0 0 L26 0 A26 26 0 0 1 13 22.5 Z" fill="#E6C56B" transform="rotate(0)" />
      <path d="M0 0 L26 0 A26 26 0 0 1 13 22.5 Z" fill="#E0A56B" transform="rotate(60)" />
      <path d="M0 0 L26 0 A26 26 0 0 1 13 22.5 Z" fill="#8FBF9F" transform="rotate(120)" />
      <path d="M0 0 L26 0 A26 26 0 0 1 13 22.5 Z" fill="#7FA8C9" transform="rotate(180)" />
      <path d="M0 0 L26 0 A26 26 0 0 1 13 22.5 Z" fill="#C98A8A" transform="rotate(240)" />
      <path d="M0 0 L26 0 A26 26 0 0 1 13 22.5 Z" fill="#A99BC1" transform="rotate(300)" />
    </g>
    <circle r="10" fill="#F5F1E8" />
  </g>
</svg>
